HIERARCHY
ROOT Hips
{
	OFFSET 0.00000 0.00000 0.00000
	CHANNELS 6 Xposition Yposition Zposition Zrotation Yrotation Xrotation 
	JOINT LHipJoint
	{
		OFFSET 0 0 0
		CHANNELS 3 Zrotation Yrotation Xrotation
		JOINT LeftHip
		{
			OFFSET 1.85742 -1.74412 1.01653
			CHANNELS 3 Zrotation Yrotation Xrotation
			JOINT LeftKnee
			{
				OFFSET 2.54803 -7.00067 0.00000
				CHANNELS 3 Zrotation Yrotation Xrotation
				JOINT LeftAnkle
				{
					OFFSET 2.51202 -6.90173 0.00000
					CHANNELS 3 Zrotation Yrotation Xrotation
					JOINT LeftToe
					{
						OFFSET 0.17547 -0.48209 1.64281
						CHANNELS 3 Zrotation Yrotation Xrotation
						End Site
						{
							OFFSET 0.00000 -0.00000 0.86587
						}
					}
				}
			}
		}
	}
	JOINT RHipJoint
	{
		OFFSET 0 0 0
		CHANNELS 3 Zrotation Yrotation Xrotation
		JOINT RightHip
		{
			OFFSET -1.95533 -1.74413 1.01654
			CHANNELS 3 Zrotation Yrotation Xrotation
			JOINT RightKnee
			{
				OFFSET -2.49465 -6.85400 0.00000
				CHANNELS 3 Zrotation Yrotation Xrotation
				JOINT RightAnkle
				{
					OFFSET -2.54783 -7.00010 0.00000
					CHANNELS 3 Zrotation Yrotation Xrotation
					JOINT RightToe
					{
						OFFSET -0.18513 -0.50864 1.69288
						CHANNELS 3 Zrotation Yrotation Xrotation
						End Site
						{
							OFFSET -0.00000 -0.00000 0.89242
						}
					}
				}
			}
		}
	}
	JOINT lowerback
	{
		OFFSET 0 0 0
		CHANNELS 3 Zrotation Yrotation Xrotation
		JOINT Chest
		{
			OFFSET 0.02173 2.16290 -0.15998
			CHANNELS 3 Zrotation Yrotation Xrotation
			JOINT Chest2
			{
				OFFSET 0.00940 2.17323 -0.00467
				CHANNELS 3 Zrotation Yrotation Xrotation
				JOINT lowerneck
				{
					OFFSET 0 0 0
					CHANNELS 3 Zrotation Yrotation Xrotation
					JOINT Neck
					{
						OFFSET 0.01475 1.85823 0.31113
						CHANNELS 3 Zrotation Yrotation Xrotation
						JOINT Head
						{
							OFFSET 0.01902 1.88783 -0.37187
							CHANNELS 3 Zrotation Yrotation Xrotation
							End Site
							{
								OFFSET 0.00489 1.93211 -0.16169
							}
						}
					}
				}
				JOINT LeftCollar
				{
					OFFSET 0 0 0
					CHANNELS 3 Zrotation Yrotation Xrotation
					JOINT LeftShoulder
					{
						OFFSET 3.34199 1.32384 -0.07862
CHANNELS 3 Zrotation Xrotation Yrotation
						JOINT LeftElbow
						{
OFFSET 0 -5.279500 0.000000
CHANNELS 3 Zrotation Xrotation Yrotation
							JOINT LeftWrist
							{
OFFSET 0 -3.535040 0.000000
CHANNELS 3 Zrotation Xrotation Yrotation
								JOINT lhand
								{
									OFFSET 0 0 0
CHANNELS 3 Zrotation Xrotation Yrotation
									JOINT LFingers
									{
OFFSET 0 -0.667950 0.000000
CHANNELS 3 Zrotation Xrotation Yrotation
										End Site
										{
OFFSET 0 -0.538520 0.000000
										}
									}
								}
								JOINT LThumb
								{
OFFSET 0 0.000000 0.000000
CHANNELS 3 Zrotation Xrotation Yrotation
									End Site
									{
OFFSET 0 -0.546740 0.546740
									}
								}
							}
						}
					}
				}
				JOINT RightCollar
				{
					OFFSET 0 0 0
					CHANNELS 3 Zrotation Yrotation Xrotation
					JOINT RightShoulder
					{
						OFFSET -3.16149 1.45719 -0.50507
CHANNELS 3 Zrotation Xrotation Yrotation
						JOINT RightElbow
						{
OFFSET 0 -5.250350 0.000000
CHANNELS 3 Zrotation Xrotation Yrotation
							JOINT RightWrist
							{
OFFSET 0 -3.588840 0.000000
CHANNELS 3 Zrotation Xrotation Yrotation
								JOINT rhand
								{
									OFFSET 0 0 0
CHANNELS 3 Zrotation Xrotation Yrotation
									JOINT RFingers
									{
OFFSET 0 -0.779240 0.000000
CHANNELS 3 Zrotation Xrotation Yrotation
										End Site
										{
OFFSET 0 -0.628240 0.000000
										}
									}
								}
								JOINT RThumb
								{
OFFSET 0 0.000000 0.000000
CHANNELS 3 Zrotation Xrotation Yrotation
									End Site
									{
OFFSET 0 -0.637830 0.637830
									}
								}
							}
						}
					}
				}
			}
		}
	}
}
MOTION
Frames: 8
Frame Time: .0083333
5.2722 17.7171 0.6817 4.1858 104.3330 10.6618 0.0000 0.0000 0.0000 -13.9802 -22.1951 -9.6911 1.3113 7.2536 20.4689 0.3905 2.1263 -12.7738 3.1987 -11.0100 -32.3137 0.0000 0.0000 0.0000 26.0522 18.7864 9.5480 -0.0700 -1.7070 4.6967 6.8008 -43.7898 -38.2225 -1.0376 -6.4787 18.1797 -2.2559 1.3639 -1.5398 1.7915 1.8570 -0.4322 3.1346 0.9356 0.2886 3.8114 -1.3139 -20.3603 6.8051 -3.5962 46.9640 2.8100 1.4299 24.5509 -0.0000 -0.0000 0.0000 65.0671 -23.1183 -10.4682 135.3660 -50.5879 98.0444 35.9852 -16.5002 -33.7621 0.0 0.0 0.0 -7.1250 0.0 0.0 5.2177 69.4762 -3.0601 -0.0000 -0.0000 0.0000 -28.586 -0.2886 40.8592 -100.5017 -59.5791 -69.0818 8.9264 -14.0182 -10.1389 0.0 0.0 0.0 7.1250 0.0 -0.0 24.8665 20.0014 16.4689
5.2571 17.7166 0.6868 4.3880 104.4360 10.8353 0.0000 0.0000 0.0000 -13.8855 -22.1301 -9.7959 1.3118 7.2547 20.4723 0.3893 1.9562 -12.6641 3.1964 -11.0065 -32.3017 0.0000 0.0000 0.0000 26.0906 18.7194 9.4588 -0.0707 -1.7148 4.7182 6.7947 -43.7714 -38.1938 -1.0552 -6.5316 18.3348 -2.2244 1.3137 -1.3150 1.7384 1.7845 -0.3397 3.0567 0.8977 0.2654 3.8126 -1.3720 -20.2390 6.9644 -3.7512 46.9292 2.8567 1.3933 24.4869 -0.0000 0.0000 0.0000 64.444 -23.1609 -10.8878 135.9638 -50.2875 98.5053 36.1392 -15.7459 -33.5945 0.0 0.0 0.0 -7.1250 0.0 0.0 5.5388 69.3449 -3.2325 -0.0000 0.0000 0.0000 -28.3112 -0.4375 41.3386 -102.2195 -59.4282 -70.562 9.5278 -12.8164 -9.805 0.0 0.0 0.0 7.1250 0.0 -0.0 25.3088 20.2911 16.6437
5.2411 17.7199 0.6913 4.6354 104.5690 11.1795 0.0000 0.0000 0.0000 -13.7173 -22.1388 -10.0435 1.3125 7.2568 20.4785 0.3880 1.7905 -12.5570 3.1558 -10.9431 -32.0881 0.0000 0.0000 0.0000 26.0989 18.6943 9.2133 -0.0718 -1.7289 4.7570 6.8585 -43.8440 -38.0811 -1.0478 -6.5093 18.2697 -2.1397 1.2713 -1.1890 1.6824 1.7240 -0.3035 2.9480 0.8670 0.2404 3.9969 -1.3524 -19.9687 7.0109 -3.8083 46.7621 2.7979 1.4044 24.1943 -0.0000 0.0000 0.0000 63.8442 -23.2346 -11.2736 136.6338 -49.9425 99.0194 36.6466 -14.6462 -33.5617 0.0 0.0 0.0 -7.1250 0.0 0.0 6.3607 69.4704 -3.7315 -0.0000 0.0000 0.0000 -27.945 -0.5202 42.018 -103.6936 -59.2795 -71.8303 8.471 -12.4842 -9.5593 0.0 0.0 0.0 7.1250 0.0 -0.0 24.6749 20.5449 15.9736
5.2248 17.7247 0.6950 4.8078 104.6280 11.4731 0.0000 0.0000 0.0000 -13.5775 -22.1638 -10.2864 1.3132 7.2587 20.4840 0.3859 1.7136 -12.4855 3.1378 -10.9148 -31.9930 0.0000 0.0000 0.0000 26.0606 18.7409 8.9780 -0.0712 -1.7210 4.7352 7.1403 -44.1798 -37.6391 -0.9387 -6.1712 17.2818 -2.1080 1.2189 -1.0730 1.6314 1.6514 -0.2836 2.8743 0.8306 0.2030 3.7150 -1.4570 -19.8599 7.4590 -4.0277 46.7765 3.0665 1.3314 24.2345 0.0000 -0.0000 0.0000 63.2255 -23.208 -11.6695 137.3264 -49.5765 99.5481 37.634 -12.9967 -33.3559 0.0 0.0 0.0 -7.1250 0.0 0.0 8.0394 69.561 -4.7366 0.0000 -0.0000 0.0000 -27.5899 -0.6453 42.889 -105.0812 -59.1229 -73.0222 6.9961 -12.0749 -9.4991 0.0 0.0 0.0 7.1250 0.0 -0.0 23.7285 20.6322 15.1821
5.2092 17.7272 0.6998 4.9257 104.6200 11.6236 0.0000 0.0000 0.0000 -13.5010 -22.1369 -10.4117 1.3137 7.2598 20.4875 0.3837 1.6811 -12.4349 3.1639 -10.9558 -32.1309 0.0000 0.0000 0.0000 26.0342 18.7791 8.9267 -0.0666 -1.6655 4.5820 7.3752 -44.4488 -37.2295 -0.8759 -5.9666 16.6876 -2.1367 1.1721 -0.8550 1.5887 1.5851 -0.2560 2.8411 0.7979 0.1139 3.7521 -1.5418 -19.5425 7.5937 -4.2174 46.6630 3.0631 1.2811 24.0062 -0.0000 0.0000 0.0000 62.5182 -23.1136 -12.1425 138.0671 -49.1743 100.1103 38.8258 -10.5983 -33.1825 0.0 0.0 0.0 -7.1250 0.0 0.0 10.0712 69.7511 -5.9842 -0.0000 0.0000 0.0000 -27.275 -0.8342 43.7259 -106.4001 -58.9589 -74.1532 5.1087 -11.2715 -9.5754 0.0 0.0 0.0 7.1250 0.0 -0.0 22.4761 20.589 14.258
5.1951 17.7297 0.7086 5.2455 104.5270 12.0084 0.0000 0.0000 0.0000 -13.3492 -22.0202 -10.5978 1.3150 7.2632 20.4976 0.3805 1.6653 -12.3786 3.2120 -11.0306 -32.3831 0.0000 0.0000 0.0000 26.0708 18.9086 8.9059 -0.0610 -1.5930 4.3822 7.4958 -44.5626 -36.9222 -0.8764 -5.9685 16.6930 -2.1764 1.1668 -0.6615 1.5585 1.5746 -0.2564 2.8278 0.7939 0.0055 3.6996 -1.6455 -19.2855 7.8637 -4.4417 46.6541 3.1704 1.2270 23.9363 -0.0000 -0.0000 0.0000 61.8009 -23.0476 -12.6637 138.8280 -48.7491 100.6842 40.1982 -7.4035 -33.4091 0.0 0.0 0.0 -7.1250 0.0 0.0 12.3857 70.4397 -7.5624 -0.0000 -0.0000 0.0000 -26.9689 -1.0361 44.4775 -107.7056 -58.7817 -75.2708 3.0695 -10.3098 -9.6642 0.0 0.0 0.0 7.1250 0.0 -0.0 21.1057 20.5193 13.2864
5.1820 17.7357 0.7189 5.7340 104.3700 12.6698 0.0000 0.0000 0.0000 -13.1077 -21.9569 -10.8850 1.3177 7.2705 20.5192 0.3769 1.7407 -12.3637 3.2225 -11.0468 -32.4377 0.0000 0.0000 0.0000 26.1284 19.1591 8.7937 -0.0556 -1.5222 4.1868 7.6743 -44.7457 -36.5161 -0.8576 -5.9057 16.5111 -2.2176 1.2073 -0.6020 1.5455 1.6277 -0.2648 2.8361 0.8212 -0.0407 3.5824 -1.7773 -19.0714 8.1961 -4.7251 46.5882 3.3059 1.1435 23.8456 0.0000 -0.0000 0.0000 61.0683 -23.1444 -13.1952 139.5490 -48.3349 101.2245 41.742 -3.9011 -33.8527 0.0 0.0 0.0 -7.1250 0.0 0.0 15.1492 71.4236 -9.6013 0.0000 -0.0000 0.0000 -26.6417 -1.2324 45.0546 -109.1180 -58.5729 -76.4773 1.8872 -8.8519 -9.5581 0.0 0.0 0.0 7.1250 0.0 -0.0 20.3253 20.6191 12.6751
5.1668 17.7409 0.7245 6.1103 104.2480 13.2176 0.0000 0.0000 0.0000 -12.9076 -22.0307 -11.1383 1.3221 7.2822 20.5542 0.3739 1.8739 -12.3884 3.1975 -11.0082 -32.3074 0.0000 0.0000 0.0000 26.1518 19.3544 8.7120 -0.0484 -1.4200 3.9052 7.9515 -45.0516 -35.9615 -0.8075 -5.7349 16.0172 -2.2507 1.2354 -0.5374 1.5481 1.6642 -0.2586 2.8561 0.8399 -0.0739 3.3649 -1.9229 -18.8809 8.5897 -5.0179 46.5109 3.4948 1.0438 23.7710 0.0000 0.0000 0.0000 60.3113 -23.2827 -13.6535 140.2571 -47.9168 101.7518 43.1377 -0.7539 -34.1985 0.0 0.0 0.0 -7.1250 0.0 0.0 17.8737 72.2516 -11.6814 0.0000 0.0000 0.0000 -26.3689 -1.4989 45.5237 -110.5095 -58.3494 -77.6633 1.6725 -6.5249 -9.0457 0.0 0.0 0.0 7.1250 0.0 -0.0 20.2494 21.0997 12.3839
